<svg width="335" height="263" viewBox="0 0 335 263" fill="none" xmlns="http://www.w3.org/2000/svg">
<path d="M2.15442 211.176C27.8977 226.028 53.6409 240.88 73.3384 249.273C93.0359 257.667 105.908 259.152 119.469 259.917C146.86 261.462 164.64 260.187 173.851 258.199C187.762 255.198 199.144 250.196 207.613 245.965C219.475 240.04 232.614 228.743 247.075 213.546C255.04 205.177 262.527 193.894 270.321 178.134C278.114 162.375 285.54 142.077 289.861 129.146C295.772 111.453 296.192 92.796 295.697 70.8108C292.201 52.681 289.201 43.6948 285.458 37.424C284.205 36.1639 282.72 35.1738 281.19 32.6534" stroke="#0013C1" stroke-width="4" stroke-linecap="round"/>
<path d="M249.686 49.1556C251.666 19.4519 254.171 3.65486 257.412 2.90476C264.49 1.2664 271.649 6.13017 284.13 10.8783C302.672 17.6516 312.634 19.6319 324.155 22.1447C326.676 22.6473 328.656 23.1423 332.196 23.6524" stroke="#0013C1" stroke-width="4" stroke-linecap="round"/>
</svg>
