<svg width="362" height="342" viewBox="0 0 362 342" fill="none" xmlns="http://www.w3.org/2000/svg">
<path d="M359.808 2.32324C319.434 3.96 279.061 5.59675 247.897 10.259C216.732 14.9213 196 22.5595 179.591 29.7678C163.182 36.9761 151.725 43.5232 139.003 52.0789C112.076 70.1876 92.0412 90.956 80.4847 108.555C64.992 132.149 63.9023 147.184 60.8437 167.544C57.5118 189.724 62.745 212.208 67.6883 228.7C78.7322 256.351 85.3289 266.254 93.3225 274.537C95.2651 276.207 96.9019 277.298 98.5882 278.422" stroke="#000BDE" stroke-width="4" stroke-linecap="round"/>
<path d="M2.69757 270.156C97.4475 327.442 108.475 334.072 115.369 337.924C117.315 339.011 119.486 340.123 120.883 339.867C132.188 337.793 124.479 304.412 128.604 287.028C134.398 270.751 143.161 247.704 152.014 233.544C154.221 231.055 156.949 228.328 159.76 225.517" stroke="#000BDE" stroke-width="4" stroke-linecap="round"/>
</svg>
